<svg width="427" height="289" viewBox="0 0 427 289" fill="none" xmlns="http://www.w3.org/2000/svg">
<path d="M122.667 89.4667C143.74 94.9927 162.631 98.0136 179.973 104.883C206.828 115.482 231.755 108.414 257.389 101.544C308.529 87.8614 359.863 74.8201 411.069 61.4561C412.611 61.0707 414.022 60.2999 415.564 59.9769C421.215 58.7582 427.064 57.3414 426.934 50.2113C426.804 43.0134 420.444 41.7946 415.111 40.6384C387.679 34.7894 360.116 29.2009 332.622 23.6117C295.876 16.2262 258.934 9.35171 222.252 1.25171C206.836 -2.15456 193.34 4.07985 179.274 6.97052C123.508 18.3402 67.8723 30.4865 12.1669 42.2412C6.51588 43.4599 0.604405 44.1057 0.344005 51.3662C0.0887918 59.3974 6.77108 60.2308 12.5523 61.71C24.8231 64.8558 36.9016 68.8402 49.3016 70.8974C58.6193 72.439 60.7391 76.8714 60.0934 85.2881C59.3225 95.3766 61.7652 105.845 54.2444 114.715C52.7652 116.512 51.9944 120.756 53.0882 122.553C61.5674 136.813 54.6298 151.272 53.6038 165.408C51.0361 201.001 53.5413 235.949 64.01 270.127C68.3798 284.387 75.6403 288.949 90.6714 288.372C103.776 287.856 115.15 282.268 125.942 275.461C134.228 270.195 130.63 263.513 126.135 258.305C102.556 230.935 92.5988 197.659 84.5668 163.544C82.5772 155.065 77.6918 144.722 80.6501 138.233C87.2698 123.649 82.1917 112.087 78.0824 98.9778C74.4209 87.2852 79.9469 81.2432 92.7277 78.4205C127.806 70.7122 162.561 61.3938 197.446 52.7232C198.988 52.3378 200.592 52.3378 202.134 51.9523C207.592 50.6034 212.926 50.6659 214.79 57.0253C216.78 64.0305 212.03 67.2389 206.051 68.718C186.52 73.5982 166.925 78.3534 147.395 83.2393C140.139 84.9685 132.947 86.833 122.665 89.4685L122.667 89.4667Z" fill="white"/>
<path d="M112.387 141.893C112.387 192.904 137.251 220.273 193.403 231.065C229.637 238.003 261.632 227.466 290.351 206.201C306.924 193.931 314.507 176.196 315.023 155.639C315.278 145.295 314.637 134.951 315.215 124.669C315.663 115.93 314.575 112.784 304.293 115.805C277.763 123.513 250.777 129.554 224.048 136.622C216.918 138.487 210.106 138.612 202.975 136.815C175.412 129.81 147.787 123.257 120.355 115.804C113.735 114.007 111.808 114.971 112.261 121.716C112.641 128.341 112.387 135.148 112.387 141.893Z" fill="white"/>
</svg>
