<svg width="747" height="616" viewBox="0 0 747 616" fill="none" xmlns="http://www.w3.org/2000/svg">
<path d="M707.427 615.213H39.9066C18.2559 615.213 0.333252 597.292 0.333252 575.64V38.04C0.333252 17.8786 16.7599 0.70665 37.6666 0.70665H709.667C729.828 0.70665 747 17.1333 747 38.04V575.64C747 597.291 729.079 615.213 707.427 615.213ZM37.6666 18.6267C27.2135 18.6267 18.2546 27.5851 18.2546 38.0387V575.639C18.2546 587.587 27.9629 597.289 39.9053 597.289H707.425C719.373 597.289 729.076 587.581 729.076 575.639V38.0387C729.076 27.5856 720.118 18.6267 709.664 18.6267H37.6666Z" fill="white"/>
<path d="M116.067 88.8133C116.067 97.4748 109.046 104.496 100.384 104.496C91.7276 104.496 84.7065 97.4752 84.7065 88.8133C84.7065 80.1515 91.7273 73.136 100.384 73.136C109.045 73.136 116.067 80.1516 116.067 88.8133Z" fill="white"/>
<path d="M194.467 88.8133C194.467 97.4748 187.446 104.496 178.784 104.496C170.122 104.496 163.101 97.4752 163.101 88.8133C163.101 80.1515 170.122 73.136 178.784 73.136C187.446 73.136 194.467 80.1516 194.467 88.8133Z" fill="white"/>
<path d="M272.12 88.8133C272.12 97.4748 265.099 104.496 256.437 104.496C247.781 104.496 240.76 97.4752 240.76 88.8133C240.76 80.1515 247.781 73.136 256.437 73.136C265.099 73.136 272.12 80.1516 272.12 88.8133Z" fill="white"/>
<path d="M678.306 174.68H69.0265C63.8025 174.68 60.0681 170.946 60.0681 166.466C60.0681 161.987 63.8025 157.508 69.0265 157.508H679.053C683.532 157.508 688.012 161.242 688.012 166.466C687.267 170.946 683.532 174.68 678.309 174.68H678.306Z" fill="white"/>
<path d="M373.667 416.6C369.187 416.6 364.708 412.866 364.708 407.642V303.111C364.708 298.632 368.443 294.153 373.667 294.153C378.896 294.153 382.625 297.887 382.625 303.111V407.642C382.625 412.121 378.146 416.6 373.667 416.6Z" fill="white"/>
<path d="M373.667 520.387C357.984 520.387 343.052 516.652 328.864 509.189C320.65 504.71 313.181 499.481 306.463 492.762C302.728 489.028 302.728 483.804 306.463 480.069C310.197 476.335 315.421 476.335 319.155 480.069C324.385 485.299 330.353 489.778 337.077 493.507C359.478 505.455 387.847 505.455 410.998 493.507C417.717 489.772 423.691 485.293 428.919 480.069C430.414 478.575 433.399 477.085 435.638 477.83L658.145 495.751L576.009 298.631C558.087 290.418 456.539 248.605 378.889 310.579C375.154 313.563 369.93 312.819 366.941 309.084C363.957 305.35 364.701 300.126 368.436 297.136C463.264 221.724 581.982 282.204 587.209 284.444C588.704 285.189 590.193 286.683 590.943 288.923L679.803 501.723C681.298 504.707 680.548 507.697 679.059 509.937C677.564 512.176 674.579 513.671 671.59 513.671L438.63 495.004C432.656 500.234 426.682 504.713 419.218 508.442C404.281 516.655 389.349 520.39 373.666 520.39L373.667 520.387Z" fill="white"/>
<path d="M75.7465 513.667C72.7621 513.667 70.5173 512.172 69.0277 509.932C67.5329 507.693 66.7881 503.958 68.2829 501.719L157.138 288.172C157.882 285.932 159.377 284.438 160.872 283.693C166.101 281.453 285.565 220.974 379.645 296.385C383.38 299.37 384.125 304.599 381.14 308.333C378.156 312.068 372.927 312.813 369.192 309.828C290.791 247.855 189.992 289.667 172.072 297.88L89.9363 495L312.443 477.079C316.922 476.334 321.401 480.063 322.151 485.293C322.896 489.772 319.167 494.251 313.938 495.001L75.7465 513.667Z" fill="white"/>
<path d="M597.666 473.347H595.427C579 468.867 562.572 462.894 546.146 456.92C480.438 433.775 419.214 411.373 381.132 468.868C378.148 472.602 372.919 474.097 369.184 471.107C365.45 468.123 363.955 462.894 366.945 459.16C412.491 390.466 483.423 415.853 552.118 440.493C567.801 446.467 584.973 452.441 600.649 456.92C605.128 458.414 608.118 462.894 606.623 467.373C605.138 471.102 601.404 473.347 597.67 473.347H597.666Z" fill="white"/>
<path d="M149.667 473.347C145.932 473.347 142.198 471.107 141.453 467.373C139.958 462.893 142.948 457.664 147.427 456.92C163.11 452.44 179.531 446.467 195.958 440.493C264.651 415.853 336.331 390.466 381.131 459.16C384.115 462.894 382.626 468.868 378.892 471.107C375.157 474.092 369.183 472.602 366.944 468.868C328.865 411.373 267.637 433.775 201.93 456.92C185.504 462.894 169.076 468.868 152.649 473.347H149.67H149.667Z" fill="white"/>
</svg>
