<svg width="40" height="33" viewBox="0 0 40 33" fill="none" xmlns="http://www.w3.org/2000/svg">
<path d="M37.88 32.92H2.12C0.960143 32.92 0 31.9599 0 30.8V2C0 0.919929 0.88 0 2 0H38C39.0801 0 40 0.88 40 2V30.8C40 31.9599 39.0399 32.92 37.88 32.92ZM2 0.96C1.44001 0.96 0.960072 1.43991 0.960072 1.99993V30.7999C0.960072 31.44 1.48016 31.9598 2.11993 31.9598H37.8799C38.52 31.9598 39.0398 31.4397 39.0398 30.7999V1.99993C39.0398 1.43994 38.5599 0.96 37.9999 0.96H2Z" fill="white"/>
<path d="M6.20002 4.72C6.20002 5.18401 5.8239 5.56014 5.35988 5.56014C4.89615 5.56014 4.52002 5.18403 4.52002 4.72C4.52002 4.25597 4.89613 3.88014 5.35988 3.88014C5.82388 3.88014 6.20002 4.25598 6.20002 4.72Z" fill="white"/>
<path d="M10.4 4.72C10.4 5.18401 10.0239 5.56014 9.55987 5.56014C9.09584 5.56014 8.71973 5.18403 8.71973 4.72C8.71973 4.25597 9.09584 3.88014 9.55987 3.88014C10.0239 3.88014 10.4 4.25598 10.4 4.72Z" fill="white"/>
<path d="M14.5601 4.72C14.5601 5.18401 14.184 5.56014 13.72 5.56014C13.2563 5.56014 12.8801 5.18403 12.8801 4.72C12.8801 4.25597 13.2562 3.88014 13.72 3.88014C14.184 3.88014 14.5601 4.25598 14.5601 4.72Z" fill="white"/>
<path d="M36.3199 9.32H3.67987C3.40001 9.32 3.19995 9.11994 3.19995 8.87998C3.19995 8.64003 3.40001 8.40007 3.67987 8.40007H36.3599C36.5998 8.40007 36.8398 8.60013 36.8398 8.87998C36.7999 9.11994 36.5998 9.32 36.32 9.32H36.3199Z" fill="white"/>
<path d="M19.9999 22.28C19.76 22.28 19.52 22.0799 19.52 21.8001V16.2002C19.52 15.9603 19.7201 15.7203 19.9999 15.7203C20.2801 15.7203 20.4798 15.9204 20.4798 16.2002V21.8001C20.4798 22.04 20.2399 22.28 19.9999 22.28Z" fill="white"/>
<path d="M20 27.84C19.1599 27.84 18.3599 27.6399 17.5999 27.2401C17.1599 27.0002 16.7597 26.72 16.3998 26.3601C16.1997 26.1601 16.1997 25.8802 16.3998 25.6802C16.5999 25.4801 16.8797 25.4801 17.0798 25.6802C17.3599 25.9603 17.6796 26.2002 18.0398 26.4C19.2399 27.0401 20.7597 27.0401 21.9999 26.4C22.3598 26.2 22.6799 25.96 22.96 25.6802C23.0401 25.6001 23.1999 25.5203 23.3199 25.5602L35.2399 26.5202L30.8398 15.9602C29.8797 15.5202 24.4396 13.2802 20.2798 16.6003C20.0797 16.7602 19.7999 16.7203 19.6397 16.5202C19.4798 16.3202 19.5197 16.0403 19.7198 15.8802C24.7999 11.8402 31.1598 15.0802 31.4398 15.2002C31.5199 15.2401 31.5997 15.3202 31.6398 15.4402L36.4002 26.8402C36.4803 27 36.4401 27.1602 36.3603 27.2802C36.2802 27.4002 36.1203 27.4802 35.9602 27.4802L23.4802 26.4802C23.1602 26.7604 22.8401 27.0003 22.4403 27.2001C21.64 27.6401 20.8401 27.8402 20 27.8402L20 27.84Z" fill="white"/>
<path d="M4.03997 27.48C3.88009 27.48 3.75983 27.3999 3.68003 27.2799C3.59995 27.16 3.56005 26.9599 3.64013 26.8399L8.4002 15.3999C8.4401 15.2799 8.52018 15.1999 8.60026 15.16C8.8804 15.04 15.2803 11.8 20.3203 15.8399C20.5203 15.9998 20.5602 16.2799 20.4003 16.48C20.2405 16.6801 19.9603 16.72 19.7603 16.5601C15.5602 13.2401 10.1603 15.48 9.20027 15.92L4.80013 26.48L16.7201 25.5199C16.9601 25.48 17.2 25.6798 17.2402 25.96C17.2801 26.1999 17.0803 26.4399 16.8002 26.48L4.03997 27.48Z" fill="white"/>
<path d="M32 25.32H31.88C31 25.08 30.1199 24.76 29.2399 24.44C25.7199 23.2001 22.44 22 20.3999 25.0801C20.2401 25.2801 19.9599 25.3602 19.7599 25.2C19.5598 25.0402 19.4797 24.76 19.6399 24.56C22.0799 20.88 25.8798 22.24 29.5599 23.56C30.4 23.88 31.32 24.2 32.1597 24.44C32.3997 24.5201 32.5599 24.76 32.4798 25C32.4003 25.1997 32.2002 25.32 32.0002 25.32H32Z" fill="white"/>
<path d="M7.99991 25.32C7.79985 25.32 7.59979 25.2 7.55989 25C7.47982 24.76 7.63997 24.4799 7.87993 24.44C8.72007 24.2 9.59979 23.88 10.4798 23.56C14.1598 22.24 17.9998 20.88 20.3998 24.56C20.5597 24.76 20.4799 25.0801 20.2798 25.2C20.0798 25.3599 19.7597 25.2801 19.6397 25.0801C17.5998 22 14.3197 23.2001 10.7997 24.44C9.91974 24.76 9.03967 25.0801 8.15967 25.32H8.00007H7.99991Z" fill="white"/>
</svg>
