<svg width="583" height="464" viewBox="0 0 583 464" fill="none" xmlns="http://www.w3.org/2000/svg">
<path d="M290.707 1.01333C289.04 1.18 287.759 1.70084 286.972 2.18L3.23882 226.18C0.207621 228.243 -0.604908 233.8 1.83776 236.914C4.28043 240.029 9.45749 240.524 12.5722 238.081L291.639 17.8144L570.705 238.081C573.82 240.524 578.997 240.029 581.44 236.914C583.883 233.8 583.247 228.17 580.039 226.18L296.305 2.18C294.431 1.03937 292.373 0.846667 290.707 1.01333ZM97.5066 188.147L82.5746 199.813V456.24H82.5693C82.5693 460.365 85.9131 463.709 90.0381 463.709H216.97C221.095 463.709 224.439 460.365 224.439 456.24V381.573C224.439 344.213 254.283 314.376 291.636 314.376C328.996 314.376 358.834 344.22 358.834 381.573V456.24C358.834 460.365 362.177 463.709 366.302 463.709H493.234C497.359 463.709 500.703 460.365 500.703 456.24V199.813L485.771 188.147V448.787H373.771V381.589C373.771 336.215 337.011 299.453 291.635 299.453C246.259 299.453 209.499 336.213 209.499 381.589V448.787H97.4992V188.147H97.5066Z" fill="white"/>
</svg>
