<svg width="40" height="32" viewBox="0 0 40 32" fill="none" xmlns="http://www.w3.org/2000/svg">
<path d="M19.9342 0.00358216C19.8198 0.0150266 19.7318 0.050791 19.6778 0.0836933L0.194746 15.465C-0.0133961 15.6067 -0.0691898 15.9882 0.09854 16.2021C0.26627 16.416 0.621761 16.45 0.835635 16.2822L19.9982 1.15726L39.1608 16.2822C39.3747 16.45 39.7302 16.416 39.8979 16.2021C40.0656 15.9883 40.022 15.6016 39.8017 15.465L20.3187 0.0836933C20.1899 0.00537024 20.0486 -0.00786228 19.9342 0.00358216ZM6.6678 12.8534L5.64247 13.6545V31.2625H5.64211C5.64211 31.5457 5.87171 31.7753 6.15497 31.7753H14.871C15.1542 31.7753 15.3838 31.5457 15.3838 31.2625V26.1354C15.3838 23.57 17.4331 21.5212 19.998 21.5212C22.5634 21.5212 24.6123 23.5704 24.6123 26.1354V31.2625C24.6123 31.5457 24.8419 31.7753 25.1251 31.7753H33.8411C34.1244 31.7753 34.354 31.5457 34.354 31.2625V13.6545L33.3286 12.8534V30.7507H25.638V26.1365C25.638 23.0207 23.1138 20.4965 19.998 20.4965C16.8821 20.4965 14.358 23.0206 14.358 26.1365V30.7507H6.66729V12.8534H6.6678Z" fill="white"/>
</svg>
