<svg width="41" height="41" viewBox="0 0 41 41" fill="none" xmlns="http://www.w3.org/2000/svg">
<path d="M40.3298 28.6558V1.16643C40.3298 1.03264 40.2532 0.904829 40.1168 0.810381C39.9803 0.715933 39.7956 0.662907 39.6024 0.662907H7.74809C5.80161 0.653426 3.92864 1.17767 2.53865 2.12084C1.14918 3.06397 0.354769 4.34949 0.329834 5.69676V33.2068C0.352662 34.5537 1.14557 35.8392 2.5341 36.7823C3.92305 37.7258 5.79498 38.2501 7.74055 38.2406H14.1696V40.4303C14.1706 40.6381 14.3558 40.8242 14.6358 40.899C14.9158 40.9735 15.2334 40.9215 15.4353 40.7677L17.8277 38.9204L20.1334 40.7578V40.7575C20.2714 40.8663 20.4698 40.9285 20.6788 40.9288C20.7655 40.9292 20.8518 40.919 20.9334 40.8986C21.2185 40.8249 21.4073 40.636 21.4062 40.4253V38.2609H39.5879C39.7807 38.2609 39.9659 38.2079 40.1018 38.1134C40.2383 38.019 40.3149 37.8908 40.3149 37.7574V28.6614L40.3298 28.6558ZM7.02101 1.70487V24.6494C7.02101 24.9275 7.3467 25.1529 7.74849 25.1529C8.14976 25.1529 8.47546 24.9275 8.47546 24.6494V1.66981H38.8752V28.1578H7.74819C5.78846 28.155 3.90536 28.6845 2.50421 29.6329C2.24244 29.8137 1.99944 30.0072 1.77724 30.2115V5.69667C1.79854 4.70329 2.34339 3.74965 3.30878 3.01471C4.27418 2.27978 5.59422 1.81386 7.0207 1.705L7.02101 1.70487ZM7.74849 37.2538V37.2534C6.18746 37.2629 4.68488 36.845 3.56787 36.0904C2.45079 35.3362 1.80958 34.3066 1.78477 33.2266C1.77919 32.1479 2.40673 31.1142 3.52333 30.3621C4.65005 29.5959 6.16889 29.1686 7.74862 29.1742H38.8756V30.4527H7.51615C7.11436 30.4527 6.78868 30.6781 6.78868 30.9562C6.78868 31.2343 7.11436 31.4597 7.51615 31.4597H14.178V37.2534L7.74849 37.2538ZM18.3887 37.8328L18.3882 37.8324C18.2507 37.7239 18.0518 37.6614 17.8428 37.6614C17.6363 37.6639 17.4395 37.7236 17.2975 37.8275L15.632 39.1162V31.4495H19.9522V39.0808L18.3887 37.8328ZM21.4066 37.2538V31.4496H38.861V37.2534L21.4066 37.2538Z" fill="white"/>
<path d="M13.195 20.2951H34.1481C34.5498 20.2951 34.8755 20.07 34.8755 19.7919C34.8755 19.5138 34.5498 19.2884 34.1481 19.2884H13.195C12.7937 19.2884 12.468 19.5138 12.468 19.7919C12.468 20.07 12.7937 20.2951 13.195 20.2951Z" fill="white"/>
<path d="M13.195 23.7028H34.1481C34.5498 23.7028 34.8755 23.4774 34.8755 23.1993C34.8755 22.9215 34.5498 22.6961 34.1481 22.6961H13.195C12.7937 22.6961 12.468 22.9215 12.468 23.1993C12.468 23.4774 12.7937 23.7028 13.195 23.7028Z" fill="white"/>
<path d="M16.4689 16.9278H30.8753C31.0681 16.9278 31.2533 16.8748 31.3897 16.7803C31.5262 16.6859 31.6028 16.5577 31.6028 16.4243V6.62353C31.6028 6.4901 31.5262 6.36193 31.3897 6.26748C31.2532 6.17303 31.0681 6.12001 30.8753 6.12001H16.4689C16.0671 6.12001 15.7415 6.34544 15.7415 6.62354V16.4243C15.7415 16.5577 15.8181 16.6859 15.9545 16.7803C16.091 16.8748 16.2757 16.9278 16.4689 16.9278ZM17.1964 7.12705L30.1488 7.1267V15.9208H17.1959L17.1964 7.12705Z" fill="white"/>
</svg>
