<svg width="411" height="598" viewBox="0 0 411 598" fill="none" xmlns="http://www.w3.org/2000/svg">
<path d="M411 415.88V8.13332C411 6.14892 410.213 4.25305 408.812 2.85212C407.411 1.45119 405.515 0.664655 403.531 0.664655H76.4912C56.5072 0.524029 37.2778 8.30012 23.0072 22.29C8.74183 36.2793 0.585834 55.3473 0.329834 75.3313V483.385C0.564207 503.363 8.70478 522.431 22.9605 536.421C37.2205 550.415 56.4392 558.191 76.4138 558.051H142.419V590.53C142.43 593.613 144.331 596.374 147.206 597.483C150.081 598.587 153.341 597.816 155.414 595.535L179.977 568.134L203.649 595.389V595.383C205.065 596.998 207.102 597.92 209.247 597.925C210.138 597.93 211.023 597.779 211.862 597.477C214.789 596.383 216.727 593.581 216.716 590.456V558.352H403.383C405.362 558.352 407.263 557.566 408.659 556.165C410.06 554.764 410.846 552.863 410.846 550.884V415.964L411 415.88ZM69.0265 16.12V356.453C69.0265 360.578 72.3702 363.922 76.4953 363.922C80.615 363.922 83.9589 360.578 83.9589 356.453V15.6H396.066V408.493H76.4922C56.3722 408.452 37.0389 416.306 22.6536 430.373C19.9661 433.056 17.4713 435.925 15.19 438.957V75.33C15.4087 60.5953 21.0025 46.45 30.914 35.5487C40.8254 24.6476 54.378 17.7367 69.0233 16.122L69.0265 16.12ZM76.4953 543.413V543.408C60.4686 543.549 45.042 537.351 33.574 526.157C22.1052 514.97 15.522 499.699 15.2673 483.679C15.21 467.679 21.6528 452.345 33.1166 441.189C44.6844 429.825 60.278 423.487 76.4966 423.569H396.07V442.533H74.11C69.9849 442.533 66.6412 445.877 66.6412 450.002C66.6412 454.127 69.9849 457.471 74.11 457.471H142.506V543.408L76.4953 543.413ZM185.735 552.002L185.73 551.997C184.319 550.387 182.277 549.46 180.131 549.46C178.011 549.497 175.99 550.382 174.532 551.924L157.434 571.039V457.32H201.788V570.513L185.735 552.002ZM216.719 543.413V457.32H395.919V543.408L216.719 543.413Z" fill="white"/>
<path d="M132.413 291.867H347.533C351.658 291.867 355.002 288.528 355.002 284.403C355.002 280.278 351.658 276.934 347.533 276.934H132.413C128.294 276.934 124.95 280.278 124.95 284.403C124.95 288.528 128.293 291.867 132.413 291.867Z" fill="white"/>
<path d="M132.413 342.413H347.533C351.658 342.413 355.002 339.07 355.002 334.945C355.002 330.825 351.658 327.481 347.533 327.481H132.413C128.294 327.481 124.95 330.825 124.95 334.945C124.95 339.07 128.293 342.413 132.413 342.413Z" fill="white"/>
<path d="M166.027 241.92H313.933C315.913 241.92 317.814 241.134 319.215 239.733C320.616 238.331 321.402 236.43 321.402 234.451V89.078C321.402 87.0988 320.616 85.1977 319.215 83.7968C317.813 82.3957 315.912 81.6093 313.933 81.6093H166.027C161.902 81.6093 158.558 84.9531 158.558 89.0781V234.451C158.558 236.431 159.344 238.332 160.745 239.733C162.146 241.134 164.042 241.92 166.027 241.92ZM173.495 96.5467L306.474 96.5415V226.984H173.49L173.495 96.5467Z" fill="white"/>
</svg>
