<svg width="40" height="34" viewBox="0 0 40 34" fill="none" xmlns="http://www.w3.org/2000/svg">
<path fill-rule="evenodd" clip-rule="evenodd" d="M37.6871 33.0527H2.3124C2.06284 33.0021 2.01416 32.8995 1.95774 32.8152L1.92859 32.6679V13.4112H0.377911L0.214842 13.3749L0.0824637 13.2726L0.00620028 13.1241L0 12.9573L0.0651023 12.8035L5.93618 4.58781C6.08684 4.43497 6.16993 4.43962 6.24867 4.42692H16.212L19.7024 0.153665L19.8053 0.0653096C19.9516 0.011367 19.8834 -0.0497041 20.1947 0.0653096L20.2976 0.153665L23.788 4.42692H33.7513C33.7913 4.43343 33.8313 4.43994 33.8713 4.44614C33.9786 4.50132 33.9792 4.50194 34.0638 4.58782L39.9349 12.8035L40 12.9573L39.9938 13.1241L39.9175 13.2726L39.7852 13.3749L39.6224 13.4112H38.0717V29.9942C38.0717 30.2062 37.8997 30.378 37.6876 30.378H37.6873C37.5856 30.378 37.488 30.3377 37.4157 30.2658C37.3438 30.1935 37.3035 30.0959 37.3035 29.9942V13.4112H30.3174C30.1171 13.3814 30.0743 13.3197 30.0201 13.2701C30.0201 13.2701 29.3235 12.4176 29.0106 12.0347C28.926 11.9312 28.9337 11.7802 29.0283 11.6854L29.0286 11.685C29.1253 11.5883 29.2586 11.5369 29.3957 11.544C29.5324 11.5508 29.6598 11.6153 29.7466 11.7213C30.0672 12.1138 30.4993 12.643 30.4993 12.643H38.8761L33.5541 5.19517H24.4162L28.6215 10.3436C28.7595 10.5125 28.7471 10.7587 28.5927 10.9131V10.9134C28.5226 10.9831 28.4262 11.0203 28.3273 11.0154C28.2284 11.0104 28.1363 10.9639 28.0737 10.887C26.6982 9.20333 20.0008 1.00388 20.0008 1.00388C16.6611 5.09269 13.3213 9.1815 9.98119 13.2703C9.83146 13.4064 9.75674 13.4005 9.68358 13.4114H2.69744V32.284H15.2639V23.8445C15.2735 23.639 15.4409 23.47 15.648 23.4604H24.3526C24.3643 23.461 24.3761 23.4616 24.3879 23.4623C24.5367 23.4827 24.6576 23.5816 24.7097 23.7158L24.7113 23.7199C24.7258 23.7589 24.7345 23.8008 24.7367 23.8445V32.284H37.3031V31.6163C37.3031 31.5146 37.3434 31.4169 37.4153 31.345C37.4876 31.2728 37.5852 31.2324 37.6869 31.2324H37.6872C37.7892 31.2324 37.8869 31.2728 37.9588 31.345C38.0307 31.4169 38.0713 31.5146 38.0713 31.6163V32.6678C38.0422 32.8141 38.0416 32.8151 37.9588 32.9397L37.8342 33.0228L37.6871 33.0527ZM19.616 25.7081H16.032V32.2841H19.616V25.7081ZM23.9683 25.7081H20.3843V32.2841H23.9683V25.7081ZM11.9067 29.755H7.18667C7.10607 29.7522 7.09273 29.7451 7.05801 29.7327C6.90859 29.6797 6.80938 29.57 6.80256 29.3709V24.6509C6.80535 24.5703 6.81248 24.5573 6.82457 24.5223C6.87758 24.3735 6.98764 24.2736 7.18666 24.2668H11.9067C11.9153 24.2671 11.924 24.2674 11.9327 24.2678C12.013 24.2761 12.0257 24.2839 12.0595 24.2988C12.1956 24.3577 12.2855 24.5003 12.2908 24.6509V29.3709C12.288 29.4515 12.2808 29.4649 12.2684 29.4996C12.2154 29.649 12.1057 29.7482 11.9067 29.755ZM32.8134 29.755H28.0937C28.0131 29.7522 27.9998 29.7451 27.9651 29.7327C27.816 29.68 27.7161 29.57 27.7093 29.3709V24.6509C27.7121 24.5703 27.7192 24.5573 27.7316 24.5223C27.7846 24.3732 27.8947 24.2736 28.0937 24.2668H32.8134C32.8221 24.2671 32.8311 24.2674 32.8397 24.2678C32.92 24.2761 32.9328 24.2839 32.9665 24.2988C33.1026 24.3577 33.1925 24.5003 33.1975 24.6509V29.3709C33.1947 29.4515 33.1879 29.4649 33.1755 29.4996C33.1225 29.649 33.0124 29.7482 32.8134 29.755ZM11.5225 25.035H7.57079V28.9868H11.5225V25.035ZM32.4293 25.035H28.4775V28.9868H32.4293V25.035ZM23.9683 24.2284H16.032V24.9399H23.9683V24.2284ZM11.9067 21.1952H7.18667C7.10607 21.1924 7.09273 21.1853 7.05801 21.1729C6.9089 21.1202 6.80938 21.0101 6.80256 20.8111V16.0911C6.80535 16.0105 6.81248 15.9972 6.82457 15.9624C6.87758 15.8136 6.98764 15.7138 7.18666 15.707H11.9067C11.9153 15.7073 11.924 15.7076 11.9327 15.7079C12.1299 15.7284 12.2827 15.8561 12.2908 16.0911V20.8111C12.288 20.8917 12.2808 20.905 12.2684 20.9397C12.2154 21.0889 12.1057 21.1884 11.9067 21.1952ZM32.8134 21.1952H28.0937C28.0131 21.1924 27.9998 21.1853 27.9651 21.1729C27.816 21.1202 27.7161 21.0101 27.7093 20.8111V16.0911C27.7121 16.0105 27.7192 15.9972 27.7316 15.9624C27.7846 15.813 27.8947 15.7138 28.0937 15.707H32.8134C32.8221 15.7073 32.8311 15.7076 32.8397 15.7079C33.0366 15.7284 33.1894 15.8561 33.1975 16.0911V20.8111C33.1947 20.8917 33.1879 20.905 33.1755 20.9397C33.1225 21.0889 33.0124 21.1884 32.8134 21.1952ZM22.3604 21.1952H17.6404C17.5598 21.1924 17.5465 21.1853 17.5118 21.1729C17.3627 21.1202 17.2631 21.0101 17.2563 20.8111V16.0911C17.2591 16.0105 17.2659 15.9972 17.2783 15.9624C17.3313 15.8136 17.4414 15.7138 17.6404 15.707H22.3604C22.3688 15.7073 22.3778 15.7076 22.3865 15.7079C22.4668 15.7163 22.4795 15.7243 22.5133 15.7389C22.649 15.7978 22.7393 15.9404 22.7442 16.0911V20.8111C22.7417 20.8917 22.7346 20.905 22.7222 20.9397C22.6692 21.0889 22.5595 21.1884 22.3604 21.1952ZM11.5233 16.4752H7.57158V20.427H11.5233V16.4752ZM32.4301 16.4752H28.4783V20.427H32.4301V16.4752ZM21.9771 16.4752H18.0257V20.427H21.9771V16.4752ZM15.5859 5.19526H6.44795L1.12623 12.6431H9.50226L15.5859 5.19526ZM20.0219 5.91449C21.4678 5.92782 22.8307 7.04328 23.0985 8.48794C23.358 9.88672 22.542 11.4098 21.2273 11.9663C19.7674 12.5841 17.8779 11.89 17.1711 10.4469C16.4407 8.95539 17.1289 6.92947 18.6707 6.20901C19.0913 6.01246 19.5552 5.91295 20.022 5.9145L20.0219 5.91449ZM19.9859 6.68271C18.6414 6.69511 17.4507 8.02475 17.6431 9.3975C17.8003 10.5198 18.8606 11.4458 20.0014 11.4458C21.1342 11.4458 22.2007 10.5325 22.36 9.3975C22.5454 8.07308 21.4442 6.69573 20.017 6.68271H19.9859ZM20.0327 7.10557C20.0997 7.11022 20.1199 7.11766 20.1571 7.13285C20.3006 7.1902 20.3942 7.30862 20.3983 7.48936V9.09275C20.3955 9.2183 20.3344 9.33456 20.2333 9.40803L19.4083 9.98094C19.0779 10.1992 18.5465 9.65977 18.9703 9.35007L19.6303 8.89187L19.6306 7.4711C19.6353 7.40383 19.6427 7.38368 19.6576 7.34648C19.7153 7.20294 19.8337 7.10932 20.0141 7.10529C20.0203 7.10529 20.0265 7.10526 20.0327 7.10557Z" fill="white"/>
</svg>
