<svg width="673" height="556" viewBox="0 0 673 556" fill="none" xmlns="http://www.w3.org/2000/svg">
<path fill-rule="evenodd" clip-rule="evenodd" d="M633.813 555.987H39.5067C35.314 555.138 34.4963 553.414 33.5483 551.997L33.0587 549.523V226.003H7.00667L4.26707 225.394L2.04307 223.675L0.76182 221.18L0.657654 218.378L1.75139 215.795L100.387 77.768C102.919 75.2002 104.314 75.2783 105.637 75.0649H273.024L331.664 3.27288L333.393 1.78848C335.852 0.882223 334.706 -0.143791 339.935 1.78848L341.664 3.27288L400.304 75.0649H567.691C568.363 75.1743 569.035 75.2836 569.706 75.3878C571.509 76.3149 571.519 76.3253 572.941 77.7681L671.577 215.795L672.67 218.378L672.566 221.18L671.285 223.675L669.061 225.394L666.327 226.003H640.275V504.603C640.275 508.166 637.384 511.051 633.822 511.051H633.816C632.108 511.051 630.467 510.374 629.254 509.166C628.045 507.952 627.368 506.311 627.368 504.603V226.003H509.999C506.635 225.503 505.916 224.467 505.004 223.633C505.004 223.633 493.301 209.311 488.046 202.879C486.624 201.139 486.754 198.603 488.342 197.009L488.348 197.004C489.973 195.379 492.212 194.514 494.514 194.634C496.811 194.749 498.952 195.832 500.41 197.613C505.796 204.207 513.056 213.097 513.056 213.097H653.789L564.377 87.9718H410.857L481.508 174.467C483.826 177.305 483.617 181.441 481.024 184.034V184.039C479.847 185.211 478.227 185.836 476.565 185.753C474.904 185.67 473.357 184.888 472.305 183.597C449.196 155.31 336.678 17.5568 336.678 17.5568C280.569 86.2501 224.46 154.943 168.345 223.637C165.829 225.923 164.574 225.824 163.345 226.007H45.9756V543.073H257.096V401.287C257.257 397.833 260.07 394.995 263.549 394.833H409.789C409.987 394.844 410.184 394.854 410.382 394.865C412.882 395.208 414.914 396.87 415.789 399.125L415.815 399.193C416.059 399.849 416.205 400.552 416.242 401.287V543.073H627.362V531.854C627.362 530.146 628.039 528.505 629.247 527.297C630.461 526.084 632.101 525.406 633.81 525.406H633.815C635.529 525.406 637.169 526.083 638.378 527.297C639.586 528.505 640.268 530.146 640.268 531.854V549.521C639.779 551.979 639.768 551.995 638.378 554.089L636.284 555.485L633.813 555.987ZM330.213 432.596H270V543.075H330.213V432.596ZM403.333 432.596H343.12V543.075H403.333V432.596ZM200.693 500.585H121.396C120.042 500.538 119.818 500.419 119.235 500.21C116.724 499.32 115.057 497.476 114.943 494.132V414.835C114.99 413.481 115.109 413.262 115.313 412.673C116.203 410.173 118.052 408.496 121.396 408.382H200.693C200.839 408.387 200.985 408.392 201.131 408.397C202.48 408.538 202.693 408.668 203.261 408.918C205.547 409.908 207.058 412.304 207.146 414.835V494.132C207.1 495.486 206.98 495.71 206.771 496.294C205.881 498.804 204.037 500.471 200.693 500.585ZM551.933 500.585H472.641C471.287 500.538 471.063 500.419 470.48 500.21C467.975 499.325 466.298 497.476 466.183 494.132V414.835C466.23 413.481 466.35 413.262 466.558 412.673C467.449 410.168 469.298 408.496 472.641 408.382H551.933C552.079 408.387 552.23 408.392 552.376 408.397C553.725 408.538 553.939 408.668 554.506 408.918C556.793 409.908 558.303 412.304 558.386 414.835V494.132C558.34 495.486 558.225 495.71 558.017 496.294C557.126 498.804 555.277 500.471 551.933 500.585ZM194.24 421.288H127.849V487.679H194.24V421.288ZM545.48 421.288H479.089V487.679H545.48V421.288ZM403.333 407.736H270V419.689H403.333V407.736ZM200.693 356.777H121.396C120.042 356.73 119.818 356.611 119.235 356.402C116.729 355.517 115.057 353.668 114.943 350.324V271.027C114.99 269.673 115.109 269.449 115.313 268.865C116.203 266.365 118.052 264.688 121.396 264.574H200.693C200.839 264.579 200.985 264.584 201.131 264.589C204.443 264.933 207.011 267.079 207.146 271.027V350.324C207.099 351.678 206.98 351.902 206.771 352.486C205.881 354.991 204.037 356.663 200.693 356.777ZM551.933 356.777H472.641C471.287 356.73 471.063 356.611 470.48 356.402C467.975 355.517 466.298 353.668 466.183 350.324V271.027C466.23 269.673 466.35 269.449 466.558 268.865C467.449 266.355 469.298 264.688 472.641 264.574H551.933C552.079 264.579 552.23 264.584 552.376 264.589C555.683 264.933 558.251 267.079 558.386 271.027V350.324C558.34 351.678 558.225 351.902 558.017 352.486C557.126 354.991 555.277 356.663 551.933 356.777ZM376.32 356.777H297.023C295.669 356.73 295.445 356.611 294.861 356.402C292.356 355.517 290.684 353.668 290.569 350.324V271.027C290.616 269.673 290.731 269.449 290.939 268.865C291.83 266.365 293.679 264.688 297.023 264.574H376.32C376.461 264.579 376.612 264.584 376.757 264.589C378.106 264.73 378.32 264.865 378.888 265.11C381.169 266.1 382.685 268.496 382.768 271.027V350.324C382.726 351.678 382.606 351.902 382.398 352.486C381.508 354.991 379.664 356.663 376.32 356.777ZM194.253 277.48H127.863V343.871H194.253V277.48ZM545.493 277.48H479.103V343.871H545.493V277.48ZM369.88 277.48H303.495V343.871H369.88V277.48ZM262.505 87.9733H108.985L19.5787 213.099H160.299L262.505 87.9733ZM337.032 100.057C361.324 100.281 384.22 119.021 388.72 143.291C393.079 166.791 379.371 192.379 357.283 201.729C332.756 212.109 301.012 200.447 289.137 176.202C276.867 151.145 288.429 117.109 314.331 105.005C321.398 101.703 329.191 100.031 337.033 100.057L337.032 100.057ZM336.428 112.963C313.84 113.171 293.834 135.51 297.068 158.572C299.708 177.427 317.521 192.984 336.688 192.984C355.718 192.984 373.636 177.64 376.313 158.572C379.428 136.322 360.928 113.182 336.949 112.963H336.428ZM337.214 120.067C338.339 120.145 338.678 120.27 339.303 120.525C341.714 121.489 343.287 123.478 343.355 126.515V153.452C343.308 155.562 342.282 157.515 340.584 158.749L326.724 168.374C321.172 172.041 312.245 162.978 319.365 157.775L330.453 150.078L330.459 126.208C330.537 125.078 330.662 124.739 330.912 124.114C331.88 121.703 333.87 120.13 336.901 120.062C337.005 120.062 337.11 120.062 337.214 120.067Z" fill="white"/>
</svg>
